<?xml version="1.0" standalone="no"?>
<!DOCTYPE svg PUBLIC "-//W3C//DTD SVG 20010904//EN"
 "http://www.w3.org/TR/2001/REC-SVG-20010904/DTD/svg10.dtd">
<svg version="1.0" xmlns="http://www.w3.org/2000/svg"
 width="250.000000pt" height="250.000000pt" viewBox="0 0 250.000000 250.000000"
 preserveAspectRatio="xMidYMid meet">
<metadata>
Created by potrace 1.14, written by Peter Selinger 2001-2017
</metadata>
<g transform="translate(0.000000,250.000000) scale(0.100000,-0.100000)"
fill="#000000" stroke="none">
<path d="M236 2261 c-4 -5 4 -20 16 -34 13 -13 30 -32 38 -43 8 -10 71 -91
140 -179 68 -88 132 -168 142 -178 10 -10 18 -21 18 -25 0 -4 10 -18 23 -32
12 -14 45 -54 72 -90 28 -36 56 -71 63 -78 14 -15 16 -39 4 -44 -12 -4 -60
-108 -66 -141 -2 -15 -7 -30 -9 -34 -4 -7 -17 -94 -19 -128 -2 -28 14 -140 21
-154 5 -9 9 -18 8 -21 -1 -13 29 -89 50 -128 15 -27 21 -48 16 -55 -10 -14
-108 -138 -214 -272 -95 -121 -88 -112 -144 -185 -28 -35 -58 -73 -68 -84 -9
-11 -17 -24 -17 -28 0 -5 -5 -6 -12 -2 -6 4 -8 3 -5 -2 3 -5 -10 -27 -28 -49
-36 -41 -38 -53 -8 -40 10 5 22 7 26 6 5 -1 6 3 2 8 -3 6 5 15 17 22 13 7 25
15 28 18 3 4 25 22 50 41 25 19 47 38 48 42 2 5 10 8 18 8 8 0 14 4 14 8 0 5
18 21 41 38 22 16 48 36 57 45 16 15 123 98 267 209 39 29 73 58 77 64 5 7 29
0 70 -20 114 -57 148 -66 278 -70 83 -3 106 1 181 26 47 16 103 38 123 50 l37
20 32 -21 c18 -12 37 -27 42 -33 6 -6 37 -31 70 -56 59 -44 137 -105 205 -160
19 -16 71 -57 115 -92 44 -34 82 -65 85 -68 3 -3 21 -17 40 -30 19 -14 46 -35
60 -47 35 -32 37 -10 4 35 -15 20 -31 39 -34 42 -3 3 -48 59 -100 125 -52 66
-98 125 -102 130 -5 6 -49 62 -98 125 -49 63 -99 126 -111 140 -53 61 -53 61
-15 136 32 65 42 91 51 140 2 10 4 19 5 19 4 0 10 73 9 110 0 56 -5 90 -23
170 -2 9 -17 45 -49 118 -6 15 -15 27 -19 27 -25 0 2 44 112 180 16 19 76 96
135 170 58 74 117 149 130 165 13 17 37 48 54 70 17 22 42 52 56 68 30 33 36
68 8 46 -10 -8 -20 -16 -23 -19 -3 -3 -25 -21 -50 -40 -25 -19 -50 -39 -57
-45 -6 -5 -24 -20 -40 -32 -15 -11 -68 -53 -118 -92 -49 -39 -95 -74 -100 -78
-6 -4 -42 -33 -80 -64 -39 -30 -98 -77 -132 -103 l-61 -47 -34 17 c-18 9 -36
21 -39 26 -3 5 -9 9 -13 8 -6 -2 -24 4 -81 26 -11 4 -27 8 -35 9 -8 2 -37 6
-65 10 -112 17 -240 -7 -349 -66 l-58 -30 -56 42 c-32 23 -71 54 -88 68 -34
29 -41 34 -134 106 -36 27 -67 52 -70 55 -3 4 -52 43 -110 88 -58 44 -131 102
-162 127 -31 25 -59 41 -62 36z m1091 -467 c32 -3 63 -6 70 -7 7 0 47 -17 89
-36 l77 -36 -137 -108 c-76 -60 -139 -107 -142 -105 -2 2 -6 62 -9 134 -7 139
-9 154 -24 154 -5 0 -10 -21 -11 -47 -1 -27 -3 -77 -5 -113 -1 -36 -3 -80 -4
-97 -1 -18 -4 -33 -8 -33 -5 0 -28 18 -53 40 -25 22 -48 40 -52 40 -4 0 -18
11 -32 25 -14 14 -29 25 -35 25 -5 0 -18 11 -29 25 -11 13 -21 23 -23 21 -2
-2 -14 6 -27 18 l-22 22 57 26 c93 43 101 45 183 54 30 4 57 8 59 10 2 2 7 1
12 -1 4 -3 34 -8 66 -11z m-487 -310 c8 -11 38 -48 65 -84 51 -66 60 -78 84
-105 7 -9 11 -18 9 -20 -2 -3 -62 -7 -134 -11 -71 -3 -135 -6 -141 -6 -7 -1
-13 -5 -13 -10 0 -14 17 -16 145 -23 148 -8 145 -7 145 -13 0 -3 -33 -46 -74
-96 -40 -50 -87 -110 -104 -134 l-30 -43 -21 30 c-12 16 -21 36 -21 44 0 9 -4
18 -9 21 -4 3 -12 20 -16 38 -4 18 -10 40 -12 48 -19 65 -16 219 4 270 3 8 8
24 10 34 2 11 16 44 31 74 l27 53 20 -24 c11 -13 27 -33 35 -43z m914 8 c13
-26 31 -74 39 -105 19 -72 20 -215 1 -276 -7 -25 -14 -48 -15 -51 -14 -48 -43
-103 -57 -108 -9 -3 -217 256 -210 263 2 2 64 7 138 11 74 3 139 9 143 11 24
15 -23 24 -143 28 -74 3 -136 7 -138 10 -4 4 46 72 73 101 6 6 37 45 69 88 32
42 63 76 67 76 5 0 20 -22 33 -48z m-523 -549 c2 -104 9 -217 13 -230 12 -31
24 -9 25 50 2 34 4 91 6 127 2 36 4 73 5 83 0 23 10 22 41 -6 15 -12 41 -33
59 -47 18 -14 38 -29 44 -35 6 -5 37 -30 69 -54 32 -24 56 -49 54 -55 -2 -6
-23 -21 -48 -33 -37 -18 -72 -29 -169 -50 -14 -3 -73 -4 -125 -1 -49 2 -125
22 -188 51 l-69 31 30 25 c17 14 43 36 59 48 15 12 54 43 85 68 36 29 62 44
70 39 7 -4 10 -4 6 1 -9 9 9 35 23 35 5 0 9 -21 10 -47z"/>
<path d="M1247 2212 c-4 -5 -9 -38 -11 -73 -3 -35 -8 -96 -11 -135 -5 -55 -3
-79 10 -110 l17 -39 19 44 c12 27 18 57 15 75 -3 17 -8 74 -12 126 -6 95 -16
132 -27 112z"/>
<path d="M499 1276 c-2 -2 -46 -7 -98 -10 -52 -4 -101 -11 -110 -16 -9 -5 -14
-10 -11 -10 24 -6 46 -8 115 -15 137 -13 164 -13 200 -2 19 6 35 16 35 23 0
20 -114 46 -131 30z"/>
<path d="M1913 1266 c-34 -16 -44 -36 -17 -36 8 0 13 -4 10 -9 -5 -8 122 -6
184 3 14 2 49 4 78 5 38 1 52 5 50 14 -3 6 -16 13 -29 14 -13 1 -42 4 -64 6
-133 16 -181 17 -212 3z"/>
<path d="M1240 609 c-16 -28 -17 -90 -7 -209 5 -47 8 -93 8 -102 0 -18 14 -24
22 -10 3 4 8 45 12 92 3 47 9 106 11 132 3 34 -1 58 -14 85 l-19 37 -13 -25z"/>
</g>
</svg>
